<svg xmlns="http://www.w3.org/2000/svg" width="1280" height="940" viewBox="0 0 1280 940" role="img" aria-label="Nylon Technologies &amp; Enterprising. One element at a time. Hosting, Discord tools, Games, Apps, Websites &amp; more all built by one dedicated team."><title>Nylon Technologies &amp; Enterprising. One element at a time. Hosting, Discord tools, Games, Apps, Websites &amp; more all built by one dedicated team.</title><style>
.d{font-family:Unbounded, 'Segoe UI', 'Helvetica Neue', Helvetica, Arial, sans-serif;font-weight:600}
.m{font-family:'IBM Plex Mono', ui-monospace, SFMono-Regular, Menlo, Consolas, monospace;font-weight:500}
.s{font-family:'IBM Plex Sans', -apple-system, 'Segoe UI', 'Helvetica Neue', Helvetica, Arial, sans-serif}
@keyframes spin{to{transform:rotate(360deg)}}
.orb{animation:spin var(--t) linear infinite;animation-direction:var(--dir)}
.keep{transform-box:fill-box;transform-origin:center;animation:spin var(--t) linear infinite;animation-direction:var(--rdir)}
@media (prefers-reduced-motion:reduce){.orb,.keep{animation:none}}
</style><rect x=".5" y=".5" width="1279" height="939" rx="14" fill="#0a0b0d" stroke="#24262c"/><defs><radialGradient id="g" cx="50%" cy="50%" r="50%"><stop offset="0" stop-color="#3b5bff" stop-opacity=".16"/><stop offset="1" stop-color="#3b5bff" stop-opacity="0"/></radialGradient></defs><circle cx="640" cy="380" r="230" fill="url(#g)"/><circle cx="640" cy="380" r="140" fill="none" stroke="#8b8f98" stroke-width="1.2" opacity=".5"/><circle cx="640" cy="380" r="185" fill="none" stroke="#8b8f98" stroke-width="1.2" opacity=".5"/><circle cx="640" cy="380" r="230" fill="none" stroke="#8b8f98" stroke-width="1.2" opacity=".5"/><circle cx="640" cy="380" r="275" fill="none" stroke="#8b8f98" stroke-width="1.2" opacity=".5"/><circle cx="640" cy="380" r="320" fill="none" stroke="#3b5bff" stroke-width="1.5" stroke-dasharray="6 8" opacity=".7"/><g class="orb" style="--t:150s;--dir:normal;transform-origin:640px 380px"><rect x="953" y="373" width="14" height="14" fill="#3b5bff" transform="rotate(0 640 380)"/><rect x="953" y="373" width="14" height="14" fill="#3b5bff" transform="rotate(60 640 380)"/><rect x="953" y="373" width="14" height="14" fill="#3b5bff" transform="rotate(120 640 380)"/><rect x="953" y="373" width="14" height="14" fill="#3b5bff" transform="rotate(180 640 380)"/><rect x="953" y="373" width="14" height="14" fill="#3b5bff" transform="rotate(240 640 380)"/><rect x="953" y="373" width="14" height="14" fill="#3b5bff" transform="rotate(300 640 380)"/></g><g transform="translate(551 291) scale(0.8900)"><path d="M20 20 H152 L180 48 V180 H20 Z" fill="#eeeee9"/><polygon points="159,20 180,20 180,41" fill="#3b5bff"/><text x="34" y="46" class="m" font-size="14" fill="#0a0b0d">119</text><text x="100" y="123.8" class="d" font-size="68" fill="#0a0b0d" text-anchor="middle" font-weight="700">Ny</text><text x="34" y="164" class="m" font-size="10" fill="#0a0b0d" letter-spacing="2">NYLON</text><text x="166" y="164" class="m" font-size="10" fill="#0a0b0d" text-anchor="end">226.32</text></g><g transform="rotate(205 640 380)"><g class="orb" style="--t:48s;--dir:normal;transform-origin:640px 380px"><g transform="translate(742.0 342.0)"><g class="keep" style="--t:48s;--rdir:reverse"><g transform="rotate(-205 38.0 38.0)"><g transform="translate(0 0) scale(0.3800)"><path d="M20 20 H152 L180 48 V180 H20 Z" fill="#0a0b0d" stroke="#eeeee9" stroke-width="3"/><polygon points="159,20 180,20 180,41" fill="#3b5bff"/><text x="34" y="46" class="m" font-size="14" fill="#eeeee9">120</text><text x="100" y="123.8" class="d" font-size="68" fill="#eeeee9" text-anchor="middle" font-weight="700">Hs</text><text x="34" y="164" class="m" font-size="10" fill="#eeeee9" letter-spacing="2">HOSTING</text></g></g></g></g></g></g><g transform="rotate(25 640 380)"><g class="orb" style="--t:64s;--dir:reverse;transform-origin:640px 380px"><g transform="translate(787.0 342.0)"><g class="keep" style="--t:64s;--rdir:normal"><g transform="rotate(-25 38.0 38.0)"><g transform="translate(0 0) scale(0.3800)"><path d="M20 20 H152 L180 48 V180 H20 Z" fill="#0a0b0d" stroke="#eeeee9" stroke-width="3"/><polygon points="159,20 180,20 180,41" fill="#3b5bff"/><text x="34" y="46" class="m" font-size="14" fill="#eeeee9">121</text><text x="100" y="123.8" class="d" font-size="68" fill="#eeeee9" text-anchor="middle" font-weight="700">Nc</text><text x="34" y="164" class="m" font-size="10" fill="#eeeee9" letter-spacing="2">CONSTRUCT</text></g></g></g></g></g></g><g transform="rotate(125 640 380)"><g class="orb" style="--t:82s;--dir:normal;transform-origin:640px 380px"><g transform="translate(832.0 342.0)"><g class="keep" style="--t:82s;--rdir:reverse"><g transform="rotate(-125 38.0 38.0)"><g transform="translate(0 0) scale(0.3800)"><path d="M20 20 H152 L180 48 V180 H20 Z" fill="#0a0b0d" stroke="#eeeee9" stroke-width="3"/><polygon points="159,20 180,20 180,41" fill="#3b5bff"/><text x="34" y="46" class="m" font-size="14" fill="#eeeee9">122</text><text x="100" y="123.8" class="d" font-size="68" fill="#eeeee9" text-anchor="middle" font-weight="700">Tm</text><text x="34" y="164" class="m" font-size="10" fill="#eeeee9" letter-spacing="2">THREADMASTER</text></g></g></g></g></g></g><g transform="rotate(300 640 380)"><g class="orb" style="--t:96s;--dir:reverse;transform-origin:640px 380px"><g transform="translate(877.0 342.0)"><g class="keep" style="--t:96s;--rdir:normal"><g transform="rotate(-300 38.0 38.0)"><g transform="translate(0 0) scale(0.3800)"><path d="M20 20 H152 L180 48 V180 H20 Z" fill="#0a0b0d" stroke="#eeeee9" stroke-width="3"/><polygon points="159,20 180,20 180,41" fill="#3b5bff"/><text x="34" y="46" class="m" font-size="14" fill="#eeeee9">124</text><text x="100" y="123.8" class="d" font-size="68" fill="#eeeee9" text-anchor="middle" font-weight="700">Ex</text><text x="34" y="164" class="m" font-size="10" fill="#eeeee9" letter-spacing="2">EXODIA</text></g></g></g></g></g></g><text x="640.0" y="770" class="m" font-size="17" fill="#8b8f98" text-anchor="middle" letter-spacing="2.6">NY • 119 • ONE ELEMENT AT A TIME</text><text x="640.0" y="838" class="d" font-size="52" fill="#eeeee9" text-anchor="middle" letter-spacing="-0.8">Nylon Technologies &amp; Enterprising</text><text x="640.0" y="888" class="s" font-size="23" fill="#8b8f98" text-anchor="middle">Hosting, Discord tools, Games, Apps, Websites &amp; more all built by one dedicated team.</text></svg>
